<mxfile host="app.diagrams.net" agent="Mozilla/5.0 (Windows NT 10.0; Win64; x64) AppleWebKit/537.36 (KHTML, like Gecko) Chrome/132.0.0.0 Safari/537.36 Edg/132.0.0.0" version="26.0.10">
  <diagram name="Page-1" id="n-qzZD9vAN29MPNRm09n">
    <mxGraphModel dx="1027" dy="440" grid="1" gridSize="10" guides="1" tooltips="1" connect="1" arrows="1" fold="1" page="1" pageScale="1" pageWidth="850" pageHeight="1100" math="0" shadow="0">
      <root>
        <mxCell id="0" />
        <mxCell id="1" parent="0" />
        <mxCell id="5fGBTxt0SFalRy9MZRus-101" value="&lt;p style=&quot;margin:0px;margin-top:4px;text-align:center;&quot;&gt;&lt;b&gt;Hệ thống&lt;/b&gt;&lt;/p&gt;&lt;hr size=&quot;1&quot; style=&quot;border-style:solid;&quot;&gt;&lt;div style=&quot;height:2px;&quot;&gt;&lt;/div&gt;" style="verticalAlign=top;align=left;overflow=fill;html=1;whiteSpace=wrap;" vertex="1" parent="1">
          <mxGeometry x="260" width="470" height="860" as="geometry" />
        </mxCell>
        <mxCell id="5fGBTxt0SFalRy9MZRus-88" value="&lt;p style=&quot;margin:0px;margin-top:4px;text-align:center;&quot;&gt;&lt;b&gt;Người dùng&lt;/b&gt;&lt;/p&gt;&lt;hr size=&quot;1&quot; style=&quot;border-style:solid;&quot;&gt;&lt;div style=&quot;height:2px;&quot;&gt;&lt;/div&gt;" style="verticalAlign=top;align=left;overflow=fill;html=1;whiteSpace=wrap;" vertex="1" parent="1">
          <mxGeometry width="260" height="860" as="geometry" />
        </mxCell>
        <mxCell id="5fGBTxt0SFalRy9MZRus-3" value="" style="ellipse;html=1;shape=startState;fillColor=#000000;strokeColor=#FF0000;" vertex="1" parent="1">
          <mxGeometry x="20" y="45" width="30" height="30" as="geometry" />
        </mxCell>
        <mxCell id="5fGBTxt0SFalRy9MZRus-4" value="" style="edgeStyle=orthogonalEdgeStyle;rounded=0;orthogonalLoop=1;jettySize=auto;html=1;strokeColor=#FF0000;" edge="1" parent="1" source="5fGBTxt0SFalRy9MZRus-3" target="5fGBTxt0SFalRy9MZRus-6">
          <mxGeometry relative="1" as="geometry" />
        </mxCell>
        <mxCell id="5fGBTxt0SFalRy9MZRus-38" style="edgeStyle=orthogonalEdgeStyle;rounded=0;orthogonalLoop=1;jettySize=auto;html=1;strokeColor=#FF0000;entryX=0.674;entryY=0.485;entryDx=0;entryDy=0;entryPerimeter=0;" edge="1" parent="1" source="5fGBTxt0SFalRy9MZRus-6" target="5fGBTxt0SFalRy9MZRus-81">
          <mxGeometry relative="1" as="geometry">
            <mxPoint x="670" y="90" as="targetPoint" />
          </mxGeometry>
        </mxCell>
        <mxCell id="5fGBTxt0SFalRy9MZRus-6" value="Sắp xếp ca làm việc" style="rounded=1;whiteSpace=wrap;html=1;arcSize=40;fontColor=#000000;fillColor=#ffffc0;strokeColor=#FF0000;" vertex="1" parent="1">
          <mxGeometry x="100" y="40" width="120" height="40" as="geometry" />
        </mxCell>
        <mxCell id="5fGBTxt0SFalRy9MZRus-39" value="" style="edgeStyle=orthogonalEdgeStyle;rounded=0;orthogonalLoop=1;jettySize=auto;html=1;strokeColor=#FF0000;" edge="1" parent="1" source="5fGBTxt0SFalRy9MZRus-28" target="5fGBTxt0SFalRy9MZRus-29">
          <mxGeometry relative="1" as="geometry">
            <Array as="points">
              <mxPoint x="360" y="140" />
            </Array>
          </mxGeometry>
        </mxCell>
        <mxCell id="5fGBTxt0SFalRy9MZRus-28" value="Thêm ca làm việc" style="rounded=1;whiteSpace=wrap;html=1;arcSize=40;fontColor=#000000;fillColor=#ffffc0;strokeColor=#FF0000;" vertex="1" parent="1">
          <mxGeometry x="500" y="120" width="120" height="40" as="geometry" />
        </mxCell>
        <mxCell id="5fGBTxt0SFalRy9MZRus-40" style="edgeStyle=orthogonalEdgeStyle;rounded=0;orthogonalLoop=1;jettySize=auto;html=1;entryX=0.5;entryY=0;entryDx=0;entryDy=0;strokeColor=#FF0000;" edge="1" parent="1" source="5fGBTxt0SFalRy9MZRus-29" target="5fGBTxt0SFalRy9MZRus-30">
          <mxGeometry relative="1" as="geometry" />
        </mxCell>
        <mxCell id="5fGBTxt0SFalRy9MZRus-29" value="Hiển thị danh sách nhân viên" style="rounded=1;whiteSpace=wrap;html=1;arcSize=40;fontColor=#000000;fillColor=#ffffc0;strokeColor=#FF0000;" vertex="1" parent="1">
          <mxGeometry x="300" y="160" width="120" height="40" as="geometry" />
        </mxCell>
        <mxCell id="5fGBTxt0SFalRy9MZRus-41" style="edgeStyle=orthogonalEdgeStyle;rounded=0;orthogonalLoop=1;jettySize=auto;html=1;entryX=0.5;entryY=0;entryDx=0;entryDy=0;strokeColor=#FF0000;" edge="1" parent="1" source="5fGBTxt0SFalRy9MZRus-30" target="5fGBTxt0SFalRy9MZRus-31">
          <mxGeometry relative="1" as="geometry" />
        </mxCell>
        <mxCell id="5fGBTxt0SFalRy9MZRus-30" value="Chọn nhân viên" style="rounded=1;whiteSpace=wrap;html=1;arcSize=40;fontColor=#000000;fillColor=#ffffc0;strokeColor=#FF0000;" vertex="1" parent="1">
          <mxGeometry x="100" y="200" width="120" height="40" as="geometry" />
        </mxCell>
        <mxCell id="5fGBTxt0SFalRy9MZRus-42" style="edgeStyle=orthogonalEdgeStyle;rounded=0;orthogonalLoop=1;jettySize=auto;html=1;entryX=0.5;entryY=0;entryDx=0;entryDy=0;strokeColor=#FF0000;" edge="1" parent="1" source="5fGBTxt0SFalRy9MZRus-31" target="5fGBTxt0SFalRy9MZRus-32">
          <mxGeometry relative="1" as="geometry" />
        </mxCell>
        <mxCell id="5fGBTxt0SFalRy9MZRus-31" value="Hiển thị danh sách ca làm việc còn trống" style="rounded=1;whiteSpace=wrap;html=1;arcSize=40;fontColor=#000000;fillColor=#ffffc0;strokeColor=#FF0000;" vertex="1" parent="1">
          <mxGeometry x="300" y="240" width="120" height="40" as="geometry" />
        </mxCell>
        <mxCell id="5fGBTxt0SFalRy9MZRus-44" style="edgeStyle=orthogonalEdgeStyle;rounded=0;orthogonalLoop=1;jettySize=auto;html=1;entryX=0.5;entryY=0;entryDx=0;entryDy=0;strokeColor=#FF0000;" edge="1" parent="1" source="5fGBTxt0SFalRy9MZRus-32" target="5fGBTxt0SFalRy9MZRus-43">
          <mxGeometry relative="1" as="geometry" />
        </mxCell>
        <mxCell id="5fGBTxt0SFalRy9MZRus-32" value="Chọn ca làm việc" style="rounded=1;whiteSpace=wrap;html=1;arcSize=40;fontColor=#000000;fillColor=#ffffc0;strokeColor=#FF0000;" vertex="1" parent="1">
          <mxGeometry x="100" y="280" width="120" height="40" as="geometry" />
        </mxCell>
        <mxCell id="5fGBTxt0SFalRy9MZRus-47" value="" style="edgeStyle=orthogonalEdgeStyle;rounded=0;orthogonalLoop=1;jettySize=auto;html=1;strokeColor=#FF0000;" edge="1" parent="1" source="5fGBTxt0SFalRy9MZRus-43" target="5fGBTxt0SFalRy9MZRus-45">
          <mxGeometry relative="1" as="geometry" />
        </mxCell>
        <mxCell id="5fGBTxt0SFalRy9MZRus-51" value="" style="edgeStyle=orthogonalEdgeStyle;rounded=0;orthogonalLoop=1;jettySize=auto;html=1;strokeColor=#FF0000;" edge="1" parent="1" source="5fGBTxt0SFalRy9MZRus-43" target="5fGBTxt0SFalRy9MZRus-49">
          <mxGeometry relative="1" as="geometry" />
        </mxCell>
        <mxCell id="5fGBTxt0SFalRy9MZRus-43" value="Xác nhận&lt;br&gt;thêm ca làm việc cho&lt;br&gt;nhân viện" style="rhombus;whiteSpace=wrap;html=1;fontColor=#000000;fillColor=#ffffc0;strokeColor=#FF0000;" vertex="1" parent="1">
          <mxGeometry x="300" y="320" width="120" height="80" as="geometry" />
        </mxCell>
        <mxCell id="5fGBTxt0SFalRy9MZRus-48" value="" style="edgeStyle=orthogonalEdgeStyle;rounded=0;orthogonalLoop=1;jettySize=auto;html=1;strokeColor=#FF0000;" edge="1" parent="1" source="5fGBTxt0SFalRy9MZRus-45" target="5fGBTxt0SFalRy9MZRus-46">
          <mxGeometry relative="1" as="geometry" />
        </mxCell>
        <mxCell id="5fGBTxt0SFalRy9MZRus-45" value="Thêm ca làm việc vào CSDL" style="rounded=1;whiteSpace=wrap;html=1;arcSize=40;fontColor=#000000;fillColor=#ffffc0;strokeColor=#FF0000;" vertex="1" parent="1">
          <mxGeometry x="300" y="440" width="120" height="40" as="geometry" />
        </mxCell>
        <mxCell id="5fGBTxt0SFalRy9MZRus-52" value="" style="edgeStyle=orthogonalEdgeStyle;rounded=0;orthogonalLoop=1;jettySize=auto;html=1;strokeColor=#FF0000;" edge="1" parent="1" source="5fGBTxt0SFalRy9MZRus-46" target="5fGBTxt0SFalRy9MZRus-49">
          <mxGeometry relative="1" as="geometry" />
        </mxCell>
        <mxCell id="5fGBTxt0SFalRy9MZRus-55" style="edgeStyle=orthogonalEdgeStyle;rounded=0;orthogonalLoop=1;jettySize=auto;html=1;entryX=1;entryY=0.5;entryDx=0;entryDy=0;strokeColor=#FF0000;" edge="1" parent="1" source="5fGBTxt0SFalRy9MZRus-46" target="5fGBTxt0SFalRy9MZRus-29">
          <mxGeometry relative="1" as="geometry">
            <mxPoint x="620" y="250" as="targetPoint" />
            <Array as="points">
              <mxPoint x="620" y="460" />
              <mxPoint x="620" y="180" />
            </Array>
          </mxGeometry>
        </mxCell>
        <mxCell id="5fGBTxt0SFalRy9MZRus-46" value="Thêm ca làm&lt;br&gt;việc khác" style="rhombus;whiteSpace=wrap;html=1;fontColor=#000000;fillColor=#ffffc0;strokeColor=#FF0000;" vertex="1" parent="1">
          <mxGeometry x="460" y="420" width="120" height="80" as="geometry" />
        </mxCell>
        <mxCell id="5fGBTxt0SFalRy9MZRus-49" value="" style="ellipse;html=1;shape=endState;fillColor=#000000;strokeColor=#FF0000;" vertex="1" parent="1">
          <mxGeometry x="505" y="345" width="30" height="30" as="geometry" />
        </mxCell>
        <mxCell id="5fGBTxt0SFalRy9MZRus-80" value="" style="edgeStyle=orthogonalEdgeStyle;rounded=0;orthogonalLoop=1;jettySize=auto;html=1;strokeColor=#FF0000;" edge="1" parent="1" source="5fGBTxt0SFalRy9MZRus-56" target="5fGBTxt0SFalRy9MZRus-62">
          <mxGeometry relative="1" as="geometry">
            <Array as="points">
              <mxPoint x="360" y="540" />
            </Array>
          </mxGeometry>
        </mxCell>
        <mxCell id="5fGBTxt0SFalRy9MZRus-56" value="Chỉnh sửa ca làm việc" style="rounded=1;whiteSpace=wrap;html=1;arcSize=40;fontColor=#000000;fillColor=#ffffc0;strokeColor=#FF0000;" vertex="1" parent="1">
          <mxGeometry x="500" y="520" width="120" height="40" as="geometry" />
        </mxCell>
        <mxCell id="5fGBTxt0SFalRy9MZRus-69" value="" style="edgeStyle=orthogonalEdgeStyle;rounded=0;orthogonalLoop=1;jettySize=auto;html=1;strokeColor=#FF0000;" edge="1" parent="1" source="5fGBTxt0SFalRy9MZRus-62" target="5fGBTxt0SFalRy9MZRus-66">
          <mxGeometry relative="1" as="geometry">
            <Array as="points">
              <mxPoint x="160" y="580" />
            </Array>
          </mxGeometry>
        </mxCell>
        <mxCell id="5fGBTxt0SFalRy9MZRus-62" value="Hiển thị danh sách ca làm tất cả nhân viên" style="rounded=1;whiteSpace=wrap;html=1;arcSize=40;fontColor=#000000;fillColor=#ffffc0;strokeColor=#FF0000;" vertex="1" parent="1">
          <mxGeometry x="300" y="560" width="120" height="40" as="geometry" />
        </mxCell>
        <mxCell id="5fGBTxt0SFalRy9MZRus-67" value="" style="edgeStyle=orthogonalEdgeStyle;rounded=0;orthogonalLoop=1;jettySize=auto;html=1;strokeColor=#FF0000;" edge="1" parent="1" source="5fGBTxt0SFalRy9MZRus-63" target="5fGBTxt0SFalRy9MZRus-65">
          <mxGeometry relative="1" as="geometry" />
        </mxCell>
        <mxCell id="5fGBTxt0SFalRy9MZRus-63" value="Chọn ca làm việc&lt;div&gt;thứ 2&lt;/div&gt;" style="rounded=1;whiteSpace=wrap;html=1;arcSize=40;fontColor=#000000;fillColor=#ffffc0;strokeColor=#FF0000;" vertex="1" parent="1">
          <mxGeometry x="100" y="680" width="120" height="40" as="geometry" />
        </mxCell>
        <mxCell id="5fGBTxt0SFalRy9MZRus-75" value="" style="edgeStyle=orthogonalEdgeStyle;rounded=0;orthogonalLoop=1;jettySize=auto;html=1;strokeColor=#FF0000;" edge="1" parent="1" source="5fGBTxt0SFalRy9MZRus-65" target="5fGBTxt0SFalRy9MZRus-71">
          <mxGeometry relative="1" as="geometry" />
        </mxCell>
        <mxCell id="5fGBTxt0SFalRy9MZRus-78" value="" style="edgeStyle=orthogonalEdgeStyle;rounded=0;orthogonalLoop=1;jettySize=auto;html=1;strokeColor=#FF0000;" edge="1" parent="1" source="5fGBTxt0SFalRy9MZRus-65" target="5fGBTxt0SFalRy9MZRus-77">
          <mxGeometry relative="1" as="geometry" />
        </mxCell>
        <mxCell id="5fGBTxt0SFalRy9MZRus-65" value="Xác nhận&lt;br&gt;chỉnh sửa 2 ca&lt;br&gt;làm việc" style="rhombus;whiteSpace=wrap;html=1;fontColor=#000000;fillColor=#ffffc0;strokeColor=#FF0000;" vertex="1" parent="1">
          <mxGeometry x="300" y="660" width="120" height="80" as="geometry" />
        </mxCell>
        <mxCell id="5fGBTxt0SFalRy9MZRus-68" value="" style="edgeStyle=orthogonalEdgeStyle;rounded=0;orthogonalLoop=1;jettySize=auto;html=1;strokeColor=#FF0000;" edge="1" parent="1" source="5fGBTxt0SFalRy9MZRus-66" target="5fGBTxt0SFalRy9MZRus-63">
          <mxGeometry relative="1" as="geometry" />
        </mxCell>
        <mxCell id="5fGBTxt0SFalRy9MZRus-66" value="Chọn ca làm việc&lt;div&gt;thứ 1&lt;/div&gt;" style="rounded=1;whiteSpace=wrap;html=1;arcSize=40;fontColor=#000000;fillColor=#ffffc0;strokeColor=#FF0000;" vertex="1" parent="1">
          <mxGeometry x="100" y="600" width="120" height="40" as="geometry" />
        </mxCell>
        <mxCell id="5fGBTxt0SFalRy9MZRus-76" value="" style="edgeStyle=orthogonalEdgeStyle;rounded=0;orthogonalLoop=1;jettySize=auto;html=1;strokeColor=#FF0000;" edge="1" parent="1" source="5fGBTxt0SFalRy9MZRus-71" target="5fGBTxt0SFalRy9MZRus-72">
          <mxGeometry relative="1" as="geometry" />
        </mxCell>
        <mxCell id="5fGBTxt0SFalRy9MZRus-71" value="Cập nhật 2 ca làm việc vào CSDL" style="rounded=1;whiteSpace=wrap;html=1;arcSize=40;fontColor=#000000;fillColor=#ffffc0;strokeColor=#FF0000;" vertex="1" parent="1">
          <mxGeometry x="300" y="780" width="120" height="40" as="geometry" />
        </mxCell>
        <mxCell id="5fGBTxt0SFalRy9MZRus-73" style="edgeStyle=orthogonalEdgeStyle;rounded=0;orthogonalLoop=1;jettySize=auto;html=1;entryX=1;entryY=0.5;entryDx=0;entryDy=0;strokeColor=#FF0000;" edge="1" parent="1" source="5fGBTxt0SFalRy9MZRus-72" target="5fGBTxt0SFalRy9MZRus-62">
          <mxGeometry relative="1" as="geometry">
            <Array as="points">
              <mxPoint x="620" y="800" />
              <mxPoint x="620" y="580" />
            </Array>
          </mxGeometry>
        </mxCell>
        <mxCell id="5fGBTxt0SFalRy9MZRus-79" value="" style="edgeStyle=orthogonalEdgeStyle;rounded=0;orthogonalLoop=1;jettySize=auto;html=1;strokeColor=#FF0000;" edge="1" parent="1" source="5fGBTxt0SFalRy9MZRus-72" target="5fGBTxt0SFalRy9MZRus-77">
          <mxGeometry relative="1" as="geometry" />
        </mxCell>
        <mxCell id="5fGBTxt0SFalRy9MZRus-72" value="Thêm ca làm&lt;br&gt;việc khác" style="rhombus;whiteSpace=wrap;html=1;fontColor=#000000;fillColor=#ffffc0;strokeColor=#FF0000;" vertex="1" parent="1">
          <mxGeometry x="460" y="760" width="120" height="80" as="geometry" />
        </mxCell>
        <mxCell id="5fGBTxt0SFalRy9MZRus-77" value="" style="ellipse;html=1;shape=endState;fillColor=#000000;strokeColor=#FF0000;" vertex="1" parent="1">
          <mxGeometry x="505" y="685" width="30" height="30" as="geometry" />
        </mxCell>
        <mxCell id="5fGBTxt0SFalRy9MZRus-82" style="edgeStyle=orthogonalEdgeStyle;rounded=0;orthogonalLoop=1;jettySize=auto;html=1;entryX=1;entryY=0.5;entryDx=0;entryDy=0;strokeColor=light-dark(#FF0000,#FFFFFF);" edge="1" parent="1" source="5fGBTxt0SFalRy9MZRus-81" target="5fGBTxt0SFalRy9MZRus-28">
          <mxGeometry relative="1" as="geometry">
            <Array as="points">
              <mxPoint x="650" y="140" />
            </Array>
          </mxGeometry>
        </mxCell>
        <mxCell id="5fGBTxt0SFalRy9MZRus-83" style="edgeStyle=orthogonalEdgeStyle;rounded=0;orthogonalLoop=1;jettySize=auto;html=1;entryX=1;entryY=0.5;entryDx=0;entryDy=0;strokeColor=light-dark(#FF0000,#FFFFFF);" edge="1" parent="1" source="5fGBTxt0SFalRy9MZRus-81" target="5fGBTxt0SFalRy9MZRus-56">
          <mxGeometry relative="1" as="geometry">
            <mxPoint x="660" y="270" as="targetPoint" />
            <Array as="points">
              <mxPoint x="690" y="540" />
            </Array>
          </mxGeometry>
        </mxCell>
        <mxCell id="5fGBTxt0SFalRy9MZRus-81" value="" style="html=1;points=[];perimeter=orthogonalPerimeter;fillColor=strokeColor;direction=south;strokeColor=#000000;" vertex="1" parent="1">
          <mxGeometry x="630" y="100" width="80" height="5" as="geometry" />
        </mxCell>
        <mxCell id="5fGBTxt0SFalRy9MZRus-91" value="Đúng" style="text;html=1;align=center;verticalAlign=middle;resizable=0;points=[];autosize=1;strokeColor=none;fillColor=none;" vertex="1" parent="1">
          <mxGeometry x="360" y="730" width="50" height="30" as="geometry" />
        </mxCell>
        <mxCell id="5fGBTxt0SFalRy9MZRus-92" value="Đúng" style="text;html=1;align=center;verticalAlign=middle;resizable=0;points=[];autosize=1;strokeColor=none;fillColor=none;" vertex="1" parent="1">
          <mxGeometry x="360" y="390" width="50" height="30" as="geometry" />
        </mxCell>
        <mxCell id="5fGBTxt0SFalRy9MZRus-93" value="Đúng" style="text;html=1;align=center;verticalAlign=middle;resizable=0;points=[];autosize=1;strokeColor=none;fillColor=none;" vertex="1" parent="1">
          <mxGeometry x="570" y="770" width="50" height="30" as="geometry" />
        </mxCell>
        <mxCell id="5fGBTxt0SFalRy9MZRus-94" value="Đúng" style="text;html=1;align=center;verticalAlign=middle;resizable=0;points=[];autosize=1;strokeColor=none;fillColor=none;" vertex="1" parent="1">
          <mxGeometry x="570" y="430" width="50" height="30" as="geometry" />
        </mxCell>
        <mxCell id="5fGBTxt0SFalRy9MZRus-96" value="Sai" style="text;html=1;align=center;verticalAlign=middle;resizable=0;points=[];autosize=1;strokeColor=none;fillColor=none;" vertex="1" parent="1">
          <mxGeometry x="405" y="670" width="40" height="30" as="geometry" />
        </mxCell>
        <mxCell id="5fGBTxt0SFalRy9MZRus-97" value="Sai" style="text;html=1;align=center;verticalAlign=middle;resizable=0;points=[];autosize=1;strokeColor=none;fillColor=none;" vertex="1" parent="1">
          <mxGeometry x="480" y="740" width="40" height="30" as="geometry" />
        </mxCell>
        <mxCell id="5fGBTxt0SFalRy9MZRus-98" value="Sai" style="text;html=1;align=center;verticalAlign=middle;resizable=0;points=[];autosize=1;strokeColor=none;fillColor=none;" vertex="1" parent="1">
          <mxGeometry x="480" y="400" width="40" height="30" as="geometry" />
        </mxCell>
        <mxCell id="5fGBTxt0SFalRy9MZRus-99" value="Sai" style="text;html=1;align=center;verticalAlign=middle;resizable=0;points=[];autosize=1;strokeColor=none;fillColor=none;" vertex="1" parent="1">
          <mxGeometry x="405" y="330" width="40" height="30" as="geometry" />
        </mxCell>
      </root>
    </mxGraphModel>
  </diagram>
</mxfile>
